HIERARCHY
ROOT pelvis
{
  OFFSET 0 100 0
  CHANNELS 6 Xposition Yposition Zposition Zrotation Xrotation Yrotation
  JOINT pelvis_right_femur
  {
    OFFSET -10.78128 -3.44521 -0.5502486
    CHANNELS 3 Zrotation Xrotation Yrotation
    JOINT right_femur_tibia
    {
      OFFSET -0.8047443 -44.0398 -0.1307829
      CHANNELS 3 Zrotation Xrotation Yrotation
      JOINT right_tibia_foot
      {
        OFFSET 3.006224 -47.83518 -5
        CHANNELS 3 Zrotation Xrotation Yrotation
        End Site
        {
          OFFSET 0 -5 15
        }
      }
    }
  }
  JOINT pelvis_left_femur
  {
    OFFSET 10.78128 -3.44521 -0.5502486
    CHANNELS 3 Zrotation Xrotation Yrotation
    JOINT left_femur_tibia
    {
      OFFSET 0.8047443 -44.0398 -0.1307829
      CHANNELS 3 Zrotation Xrotation Yrotation
      JOINT left_tibia_foot
      {
        OFFSET -4.370144 -48.10324 -4.275266
        CHANNELS 3 Zrotation Xrotation Yrotation
        End Site
        {
          OFFSET 0 -5 15
        }
      }
    }
  }
  JOINT pelvis_spine1
  {
    OFFSET 0 6.468898 -3.129235
    CHANNELS 3 Zrotation Xrotation Yrotation
    JOINT spine1
    {
      OFFSET 0 23.15396 4.99043
      CHANNELS 3 Zrotation Xrotation Yrotation
      JOINT spine2
      {
        OFFSET 0 20.79997 -5.064912
        CHANNELS 3 Zrotation Xrotation Yrotation
        JOINT neck
        {
          OFFSET 0 14.38658 9.616178
          CHANNELS 3 Zrotation Xrotation Yrotation
          End Site
          {
            OFFSET 0 20 0
          }
        }
      }
      JOINT right_manubrium
      {
        OFFSET -5.722621 16.35077 3.967754
        CHANNELS 3 Zrotation Xrotation Yrotation
        JOINT right_clavicle
        {
          OFFSET -13.16364 1.694482 -4.693211
          CHANNELS 3 Zrotation Xrotation Yrotation
          JOINT right_humerus
          {
            OFFSET -28.5034 -0.3100689 -2.792744
            CHANNELS 3 Zrotation Xrotation Yrotation
            JOINT right_radius
            {
              OFFSET -25.15693 0.02248979 -1.271978
              CHANNELS 3 Zrotation Xrotation Yrotation
              End Site
              {
                OFFSET -15 0 0
              }
            }
          }
        }
      }
      JOINT left_manubrium
      {
        OFFSET 5.722621 16.35077 3.967754
        CHANNELS 3 Zrotation Xrotation Yrotation
        JOINT left_clavicle
        {
          OFFSET 13.16364 1.694482 -4.693211
          CHANNELS 3 Zrotation Xrotation Yrotation
          JOINT left_humerus
          {
            OFFSET 29.39168 -1.063119 -2.237045
            CHANNELS 3 Zrotation Xrotation Yrotation
            JOINT left_radius
            {
              OFFSET 24.59957 -0.9528479 0.9047498
              CHANNELS 3 Zrotation Xrotation Yrotation
              End Site
              {
                OFFSET 15 -0 -0
              }
            }
          }
        }
      }
    }
  }
}
MOTION
Frames: 21
Frame Time: 0.0416666666667
0 103.5113 0 1.006631 -0.5170536 -0.03895205 3.343817 -17.21836 8.724222 -0 36.00335 -0 -4.7863 -16.16848 -3.70821 -6.915798 11.58688 -23.34155 -0 4.985674 -0 5.380264 -18.71524 25.21876 -2.11578 -3.709162 5.289279 2.922053 10.01691 -8.646249 1.304682 21.05797 6.507686 3.012455 -24.67572 9.017796 4.642816 -20.38033 11.88344 84.1749 29.6202 -17.95568 -0 0 19.21674 -11.76863 9.263271 3.622662 9.879376 -22.99656 3.089933 -94.88543 19.91563 20.68635 0 0 -7.953196 13.80353 19.29057 -6.151183
0.2272278 103.4597 1.608064 0.2041834 -0.005768266 -0.1581072 4.516627 -20.14217 9.095369 -0 36.1046 -0 -5.310238 -14.8645 -4.043619 -6.243431 11.71184 -22.93169 -0 5.620522 -0 3.83787 -20.08311 24.43894 -2.000878 -3.390153 5.228528 2.918702 9.937066 -8.545483 1.201244 20.9264 6.74102 3.208154 -24.95216 9.026249 4.730417 -20.0245 11.88539 84.39379 30.2635 -18.17224 -0 0 18.50145 -11.71322 9.437312 3.939668 9.612401 -22.84913 2.79735 -94.65029 20.12664 20.63223 0 0 -8.936718 13.47001 18.4592 -5.475176
0.4687495 103.2036 3.541837 -0.4207274 0.7725827 -0.2983636 5.459601 -24.65862 8.385091 -0 32.63409 -0 -5.977226 -12.53889 -3.692325 -5.844112 12.02697 -21.63388 -0 5.807741 -0 4.2535 -21.15965 23.54109 -2.467744 -3.309667 4.643952 3.395013 9.613838 -8.860155 1.243407 20.93916 7.125782 3.346569 -26.01426 9.647268 5.016556 -19.76451 12.09138 84.6747 30.39955 -18.59049 -0 0 17.88739 -10.68432 9.046591 3.324849 9.553647 -22.63251 2.654485 -94.32044 19.48316 19.38798 0 0 -9.248949 15.35192 18.68249 -7.811937
0.722104 102.7278 5.772268 -0.7910848 1.637244 -0.4169458 6.156414 -28.48059 8.027364 -0 28.92004 -0 -6.1508 -10.82086 -3.444251 -5.654929 12.25494 -20.57446 -0 5.847178 -0 4.884124 -22.0283 22.87423 -2.821475 -3.430747 4.419017 3.601935 9.474546 -8.966689 1.35631 20.99289 7.229612 3.361082 -26.51696 10.03405 5.308555 -19.76721 12.10909 84.6514 30.62121 -18.72186 -0 0 17.76167 -9.751168 8.729386 2.859575 9.494449 -22.4629 2.498612 -94.24133 19.40963 18.8728 0 0 -9.593544 16.35667 18.95987 -8.7364
0.9771161 101.9685 8.456568 -0.9486957 2.531149 -0.4323648 6.574006 -32.1906 7.320822 -0 23.66893 -0 -6.080503 -8.693731 -3.016662 -5.637643 12.71848 -19.26469 -0 6.044209 -0 5.702653 -22.82958 22.00352 -2.87126 -3.008981 4.100489 3.801483 9.212122 -8.979819 1.20442 20.87732 7.707999 3.637023 -27.19895 10.30788 5.287691 -19.42958 12.25252 84.96018 31.12694 -18.92983 -0 0 16.92379 -9.604632 8.705635 3.079339 9.32183 -22.28529 2.237355 -93.63542 19.07846 18.01309 0 0 -10.91362 16.96514 17.95666 -9.477527
1.209606 100.9824 11.72579 -0.9985751 3.287343 -0.2408719 6.84746 -35.06417 6.548012 -0 18.3395 -0 -5.895725 -6.322748 -2.61538 -5.654479 13.46774 -17.93029 -0 6.937603 -0 5.920297 -23.46882 20.79089 -2.828595 -2.573569 3.832493 3.942297 8.997941 -8.96622 1.034962 20.7261 8.17189 3.925819 -27.74354 10.50081 5.209762 -19.07505 12.36447 85.3313 31.64991 -19.20065 -0 0 16.02183 -9.619445 8.771531 3.41235 9.188392 -22.20124 1.967499 -92.97086 18.83548 17.17851 0 0 -12.47627 17.25931 16.80713 -9.823102
1.389575 99.94868 15.73452 -1.11123 3.822277 0.2649892 7.163651 -36.61244 5.823986 -0 14.07853 -0 -5.884334 -3.837164 -2.299844 -5.542095 14.52516 -16.63278 -0 9.193836 -0 4.922777 -23.62401 18.94459 -2.707902 -2.05946 3.530237 4.065993 8.784295 -8.973484 0.8075003 20.53428 8.714039 4.279477 -28.22444 10.63607 4.997358 -18.65034 12.50034 85.84142 32.05079 -19.5736 -0 0 14.96761 -9.991054 8.92915 3.892934 9.152412 -22.25559 1.727293 -92.14411 18.49532 16.11174 0 0 -14.29429 17.37473 15.45048 -10.12855
1.500459 99.16218 20.57039 -1.499451 4.109921 1.08786 7.677175 -36.26731 5.294956 -0 12.3276 -0 -6.3931 -1.922056 -2.097625 -5.109214 15.60968 -15.47604 -0 13.40493 -0 2.291385 -22.61822 16.25525 -2.562525 -1.581536 3.242682 4.143692 8.616916 -9.001314 0.5815995 20.33936 9.229639 4.631237 -28.5677 10.71032 4.714072 -18.23498 12.61667 86.42911 32.29215 -20.02156 -0 0 13.92747 -10.58479 9.128809 4.410514 9.201108 -22.43287 1.511752 -91.29193 18.17001 14.98489 0 0 -16.141 17.29195 14.14449 -10.26965
1.562497 98.89228 26.18545 -2.227003 4.216134 1.999906 8.336347 -34.00058 4.982491 -0 13.29559 -0 -7.408535 -1.293044 -2.006929 -4.296765 16.07429 -14.32722 -0 19.91953 -0 -1.519095 -19.69208 12.90356 -2.399673 -1.160947 2.997539 4.152219 8.520169 -9.04239 0.3700448 20.15917 9.674349 4.953638 -28.74028 10.70023 4.366601 -17.85459 12.70482 87.08677 32.34475 -20.51407 -0 0 12.97055 -11.42102 9.362327 4.957768 9.297278 -22.70576 1.312958 -90.48932 17.90043 13.93452 0 0 -17.82686 16.95644 12.97803 -10.16672
1.623482 99.18529 32.39241 -2.954241 3.977964 2.576497 8.877526 -30.36392 4.946547 -0 15.31943 -0 -8.110911 -1.789209 -2.162329 -3.34292 15.15152 -12.82163 -0 28.80393 -0 -5.052501 -14.90791 9.86289 -2.242857 -0.8352418 2.840736 4.080712 8.517156 -9.073651 0.2001054 20.01865 9.981126 5.196511 -28.73487 10.60273 4.010146 -17.56392 12.75296 87.73904 32.26225 -20.96192 -0 0 12.21098 -12.3765 9.597745 5.497467 9.36195 -22.98972 1.110986 -89.84335 17.75114 13.18063 0 0 -19.12254 16.38549 12.05542 -9.748449
1.710518 99.92661 38.88778 -3.19127 2.979262 2.509602 9.100929 -25.69646 5.321267 -0 16.74583 -0 -7.855107 -2.800123 -2.612626 -2.607712 12.311 -11.07295 -0 39.45398 -0 -7.078114 -9.677661 8.39877 -2.118771 -0.5907307 2.75594 3.952983 8.579708 -9.085856 0.07064273 19.92676 10.17593 5.365546 -28.61926 10.462 3.656703 -17.37699 12.77512 88.35357 32.09233 -21.31797 -0 0 11.65177 -13.35637 9.792945 6.007356 9.372358 -23.23868 0.8936748 -89.33486 17.69024 12.6914 0 0 -20.07256 15.71324 11.34343 -9.159305
1.817865 101.039 45.27263 -2.822184 1.310543 1.903289 8.838233 -20.15158 5.673031 -0 17.06267 -0 -7.427334 -4.365418 -2.934499 -2.334077 7.508671 -9.774157 -0 49.84798 -0 -7.461301 -5.760095 8.717347 -2.036332 -0.3976395 2.702112 3.792963 8.672427 -9.081905 -0.02985689 19.87746 10.31415 5.49028 -28.457 10.32102 3.285973 -17.27377 12.78203 88.96218 31.85512 -21.60877 -0 0 11.2138 -14.32437 9.923949 6.48295 9.345123 -23.46188 0.6453899 -88.87787 17.67285 12.31019 0 0 -20.89085 15.03684 10.75174 -8.529481
1.932251 102.4257 51.2499 -1.940731 -0.4721405 1.149322 7.876813 -14.05938 5.268312 -0 15.92955 -0 -7.684683 -6.406492 -2.761511 -2.601531 1.317446 -9.137219 -0 57.73181 -0 -6.733871 -4.00122 9.947339 -1.987142 -0.2436822 2.672768 3.598615 8.794161 -9.058334 -0.1059908 19.87187 10.40398 5.574755 -28.25253 10.18006 2.874095 -17.25249 12.77636 89.59474 31.53758 -21.84283 -0 0 10.87037 -15.29931 9.985971 6.933362 9.275148 -23.66637 0.353515 -88.45109 17.6898 12.01774 0 0 -21.62657 14.35049 10.25735 -7.86237
2.039325 103.8557 56.80085 -0.7235499 -1.990243 0.5695287 6.35424 -7.765944 4.196224 -0 13.61078 -0 -8.126928 -8.346972 -2.245971 -3.06193 -5.436243 -8.669757 -0 61.50433 -0 -5.68783 -4.058776 11.39643 -1.962546 -0.1446961 2.703045 3.368743 8.960458 -8.998822 -0.1502792 19.93018 10.40084 5.585803 -27.9941 10.02286 2.430927 -17.35973 12.7699 90.18294 31.13045 -21.92813 -0 0 10.72741 -16.23654 9.965055 7.326518 9.126855 -23.803 0.04486699 -88.16734 17.7299 12.00892 0 0 -22.01458 13.68365 9.972465 -7.207008
2.128967 104.9766 62.13354 0.3589862 -3.32043 0.1510636 5.0295 -1.712135 3.508371 -0 11.24225 -0 -7.370206 -9.560535 -1.8273 -2.812381 -11.96942 -7.57346 -0 60.28049 -0 -5.1212 -4.702771 13.08784 -1.947456 -0.1152237 2.83343 3.12277 9.180751 -8.890631 -0.1572011 20.06332 10.25639 5.486227 -27.68671 9.834647 1.9942 -17.64477 12.78659 90.60121 30.66468 -21.74236 -0 0 10.92092 -17.03756 9.864916 7.61603 8.868035 -23.79911 -0.2231265 -88.17283 17.74359 12.52362 0 0 -21.71518 13.12607 10.02552 -6.695855
2.222598 105.4595 67.43485 0.7907514 -4.64257 -0.3335451 4.624997 3.626363 3.721442 -0 9.553604 -0 -5.410289 -10.27165 -1.790804 -1.274784 -17.51103 -5.629085 -0 53.90828 -0 -5.074402 -5.02238 15.21123 -1.920432 -0.1580425 3.08737 2.888031 9.453003 -8.739551 -0.1272277 20.25242 9.940294 5.253088 -27.32816 9.59825 1.61119 -18.12204 12.84017 90.73648 30.19958 -21.21748 -0 0 11.53764 -17.63109 9.734207 7.792561 8.498359 -23.60857 -0.3903614 -88.53517 17.67196 13.68219 0 0 -20.54063 12.74091 10.44935 -6.418438
2.356544 105.2113 72.76904 0.5670544 -5.703214 -0.9831202 4.937113 7.922562 3.941525 -0 8.530297 -0 -4.142297 -11.39919 -1.902358 0.8094267 -21.35747 -3.722764 -0 43.82786 -0 -4.807479 -5.132959 17.28809 -1.867889 -0.2721164 3.451655 2.690237 9.745532 -8.572164 -0.06432807 20.46008 9.457507 4.888269 -26.9109 9.312806 1.320236 -18.76097 12.91671 90.52495 29.77443 -20.37678 -0 0 12.59014 -17.99262 9.630439 7.869079 8.077113 -23.24519 -0.4000443 -89.20252 17.48956 15.37384 0 0 -18.55021 12.54985 11.17677 -6.401868
2.563209 104.4019 78.18589 0.1025281 -5.995402 -1.708903 5.22178 11.22922 3.657528 -0 8.238246 -0 -4.061001 -13.28158 -1.646562 2.405843 -23.98747 -2.601566 -0 33.17182 -0 -4.166643 -5.223334 18.58244 -1.793074 -0.4441889 3.850161 2.549468 9.996793 -8.4292 0.02077893 20.65185 8.885414 4.445742 -26.462 9.019903 1.119868 -19.46398 12.98105 90.04424 29.37421 -19.3954 -0 0 13.9095 -18.14828 9.565049 7.853117 7.718542 -22.81866 -0.2452211 -89.97884 17.22982 17.1781 0 0 -16.18591 12.54344 12.05008 -6.62592
2.875892 103.2823 83.79217 -0.2967627 -5.369897 -2.413104 5.103268 13.79127 3.284916 -0 8.716248 -0 -4.022003 -15.3803 -0.9095245 3.303 -26.1683 -2.093109 -0 24.11527 -0 -3.551135 -5.225177 19.01828 -1.711731 -0.6322271 4.186202 2.462144 10.17636 -8.336335 0.1097155 20.81004 8.34759 4.019947 -26.04433 8.773319 0.9627161 -20.10279 13.01342 89.53214 28.97325 -18.5299 -0 0 15.16187 -18.19269 9.512481 7.775747 7.486273 -22.469 -0.02504672 -90.62684 16.96293 18.63769 0 0 -14.08521 12.64639 12.86606 -6.971076
3.304735 102.0688 89.7284 -0.4926328 -4.414362 -3.068214 4.532945 15.92803 3.020502 -0 10.15963 -0 -3.579232 -16.61225 -0.07590038 3.359267 -27.49961 -2.161724 -0 17.63415 -0 -3.218275 -5.286284 19.10763 -1.640856 -0.7877936 4.408268 2.41772 10.29184 -8.294561 0.1851706 20.93118 7.933588 3.684564 -25.72447 8.602037 0.820267 -20.58955 13.0272 89.17229 28.59442 -17.92856 -0 0 16.09786 -18.19783 9.456145 7.668994 7.360831 -22.24973 0.1563238 -91.04737 16.72941 19.58191 0 0 -12.58662 12.79452 13.50594 -7.340838
3.825408 100.9575 96.10094 -0.384994 -3.799468 -3.664908 3.503887 17.92866 2.818745 -0 12.99112 -0 -3.025298 -16.01697 0.4883438 2.378702 -27.57083 -3.00281 -0 14.30137 -0 -3.252651 -5.644429 19.31859 -1.59058 -0.8828795 4.505757 2.411573 10.35699 -8.296613 0.238713 21.02152 7.674859 3.466918 -25.54063 8.511861 0.6867762 -20.89296 13.0442 89.02712 28.26374 -17.61872 -0 0 16.63066 -18.18431 9.389722 7.538788 7.301219 -22.14792 0.2525676 -91.25196 16.52993 20.03751 0 0 -11.71546 12.97555 13.95656 -7.72592
